<?xml version="1.0" encoding="UTF-8"?>
<svg id="a" data-name="Слой 1" xmlns="http://www.w3.org/2000/svg" xmlns:xlink="http://www.w3.org/1999/xlink" viewBox="0 0 16 16">
  <defs>
    <style>
      .c {
        fill: #fff;
      }

      .d {
        fill: #d7ab28;
      }

      .e {
        fill: #fee600;
      }

      .f {
        fill: #bbca1a;
      }

      .g {
        fill: none;
        fill-rule: evenodd;
      }

      .h {
        fill: url(#b);
      }

      .i {
        fill: #fdc110;
      }

      .j {
        isolation: isolate;
        opacity: .1;
      }

      .j, .k {
        fill: #010101;
      }
    </style>
    <linearGradient id="b" data-name="Безымянный градиент 9" x1="4.69" y1="-32.62" x2="10.54" y2="-23.65" gradientTransform="translate(0 -21.86) scale(1 -1)" gradientUnits="userSpaceOnUse">
      <stop offset="0" stop-color="#fff"/>
      <stop offset=".7" stop-color="#fff" stop-opacity="0"/>
    </linearGradient>
  </defs>
  <path class="j" d="M6.73,14.08l-4.44-1.72c-.08-.04-.14-.1-.18-.17-.04-.07-.05-.15-.03-.23l1.54-4.03c.04-.11,0-.18-.08-.26l-.66-.48s-.07-.08-.09-.14c-.01-.05-.01-.11,0-.16l1.74-3.44c.08-.15,.25-.26,.42-.26l5.94-.51c.17,0,.37,.07,.46,.18l1.99,2.71c.12,.18,.08,.44-.12,.59l-1.16,.77,1.49,.77c.17,.11,.29,.29,.25,.48l-.83,3.44c-.04,.15-.12,.26-.29,.29l-5.52,2.12c-.12,.07-.29,.07-.42,.04Z"/>
  <path class="i" d="M6.73,13.57l-4.44-1.72c-.08-.04-.14-.1-.18-.17-.04-.07-.05-.15-.03-.23l1.54-4.03c.04-.11,0-.18-.08-.26l-.66-.48s-.07-.08-.09-.14c-.01-.05-.01-.11,0-.16l1.74-3.44c.08-.15,.25-.26,.42-.26l5.94-.51c.17,0,.37,.07,.46,.18l1.99,2.71c.12,.18,.08,.44-.12,.59l-1.16,.77,1.49,.77c.17,.11,.29,.29,.25,.48l-.83,3.44c-.04,.15-.12,.26-.29,.29l-5.52,2.12c-.12,.07-.29,.07-.42,.04Z"/>
  <path class="e" d="M6.94,12.95l-4.07-1.57,1.91-5.05,2.78-1.03-.46,1.54,3.32-1.76-.54-.62-6.27,1.9,1.54-3.04,5.65-.48,1.78,2.45-1.87,1.21,2.32,1.21-.79,3.18h-.04l-5.27,2.05Zm-3.82-1.65l3.82,1.46,5.15-1.98,.75-2.97-2.45-1.28,1.95-1.28-1.62-2.23-5.44,.48-1.33,2.56,5.98-1.83,.75,.88-3.49,1.87,2.74,1.54-4.11,1.61,1-3.15,.42-1.35-2.32,.88-1.78,4.8Zm3.9-4.25l-.87,2.75,3.4-1.32-2.53-1.43Z"/>
  <path class="k" d="M3.78,6.21l1.45-2.82,5.52-.44,1.7,2.31-1.91,1.28,2.37,1.21-.75,3.08-5.23,2.01-3.94-1.5,1.87-4.94,2.53-.95-1.37,4.5,3.74-1.46-2.74-1.5,3.53-1.87-.66-.77-6.1,1.87Z"/>
  <path class="h" d="M2.87,6.69l.66,.48c.08,.07,.12,.18,.08,.26l-1,2.67c2.87-1.79,6.11-3.05,9.55-3.7l1.04-.7c.21-.15,.25-.4,.12-.59l-1.99-2.71c-.04-.07-.11-.13-.19-.16-.08-.03-.17-.04-.26-.02l-5.94,.48c-.17,0-.33,.11-.42,.26l-1.74,3.44c-.04,.11-.04,.22,.08,.29Z"/>
  <path class="d" d="M6.94,13.64l-.21-.04-4.48-1.72c-.21-.07-.29-.26-.25-.44l1.54-4.03c.04-.07,0-.18-.08-.22l-.62-.48c-.06-.04-.1-.09-.11-.15-.02-.06,0-.12,.03-.18l1.74-3.44c.08-.15,.25-.26,.46-.29l5.94-.51c.21,0,.42,.07,.5,.22l1.99,2.71c.17,.22,.08,.51-.12,.66l-1.08,.7,1.45,.73c.21,.11,.29,.33,.25,.51l-.83,3.44c-.04,.15-.17,.29-.33,.33l-5.52,2.12c-.08,.07-.17,.07-.25,.07Zm-.17-.11h.37l5.52-2.12c.12-.04,.25-.15,.25-.29l.83-3.44c.04-.18-.04-.33-.21-.44l-1.58-.77,1.2-.81c.21-.11,.25-.37,.12-.55l-1.99-2.71c-.08-.11-.25-.18-.42-.18l-5.94,.51c-.17,0-.29,.11-.37,.22l-1.74,3.48c-.04,.07,0,.18,.04,.26l.66,.48c.12,.04,.17,.18,.12,.29l-1.54,4.03c-.04,.15,.04,.29,.17,.37l4.48,1.68Z"/>
  <path class="f" d="M9.93,7.6c-.1-.24-.38-.37-.85-.37s-.67,.12-.56,.37l.41,1.07c.1,.24,.38,.37,.85,.37s.67-.12,.58-.37l-.43-1.07Zm-.09,1.08c.03,.08-.03,.12-.17,.12s-.22-.04-.26-.12l-.41-1.07c-.03-.08,.03-.12,.17-.12,.15,0,.24,.04,.26,.12l.41,1.07Z"/>
  <path class="f" d="M10.83,9.02h.77c.44,0,.62-.12,.51-.37l-.19-.5c-.05-.11-.17-.2-.36-.24,.17-.04,.22-.13,.17-.24l-.02-.03c-.1-.24-.38-.37-.84-.37h-.73l.68,1.74Zm.02-1.24l-.1-.27h.22c.14,0,.24,.04,.26,.12l.02,.03c.02,.05-.02,.1-.09,.11h-.14s-.17,0-.17,0Zm.38,.98l-.29-.74h.29c.1,.03,.15,.06,.17,.12l.19,.5c.03,.08-.03,.12-.17,.12h-.19Z"/>
  <path class="c" d="M4.65,10.94l-.06,.13c-.09,.18-.31,.28-.71,.28s-.55-.09-.47-.28l.34-.81c.09-.18,.31-.28,.71-.28s.55,.09,.48,.28l-.07,.18h-.41l.07-.18c.03-.06-.03-.09-.14-.09s-.18,.03-.21,.09l-.34,.81c-.03,.06,.03,.09,.14,.09,.13,0,.2-.03,.21-.09l.06-.13h.4Z"/>
  <path class="c" d="M5.77,10.3l-.73,1.03h-.41l1-1.33h.57l-.14,1.33h-.41l.13-1.03Z"/>
  <path class="c" d="M6.8,10.93l-.06,.13c-.03,.06,.03,.09,.14,.09s.2-.03,.21-.09v-.03c.04-.07-.06-.14-.28-.22-.23-.09-.31-.19-.26-.31l.11-.25c.09-.18,.31-.28,.71-.28s.55,.09,.48,.28l-.07,.18h-.43l.07-.18c.03-.06-.03-.09-.14-.09s-.18,.03-.21,.09l-.1,.25c-.03,.06,.07,.13,.3,.22,.23,.09,.31,.18,.26,.31l-.03,.04c-.09,.18-.31,.28-.71,.28s-.55-.09-.47-.28l.06-.13h.41Z"/>
  <path class="c" d="M8.26,10h.41l-.57,1.33h-.41l.57-1.33Z"/>
  <path class="c" d="M9,10h.41l.07,.77,.33-.77h.38l-.57,1.33h-.41l-.06-.74-.31,.74h-.4l.55-1.33Z"/>
  <path class="c" d="M11.22,11.07c-.09,.18-.31,.28-.71,.28s-.55-.09-.47-.28l.34-.81c.09-.18,.31-.28,.71-.28s.55,.09,.48,.28l-.36,.81Zm-.07-.82c.03-.06-.03-.09-.14-.09s-.18,.03-.21,.09l-.34,.81c-.03,.06,.03,.09,.14,.09,.13,0,.2-.03,.21-.09l.34-.81Z"/>
  <path class="g" d="M0,0V16H15.97c.01-5.33,.02-10.67,.03-16H0Z"/>
</svg>